<svg xmlns="http://www.w3.org/2000/svg" version="1.1" xmlns:xlink="http://www.w3.org/1999/xlink" xmlns:svgjs="http://svgjs.com/svgjs" width="2000" height="448" preserveAspectRatio="none" viewBox="0 0 2000 448"><g mask="url(&quot;#SvgjsMask1422&quot;)" fill="none"><rect width="2000" height="448" x="0" y="0" fill="rgba(221, 168, 135, 0.3215686274509804)"></rect><path d="M0,679.75C123.784,652.405,171.625,501.402,275.945,429.378C375.114,360.91,538.005,378.065,592.58,270.622C646.866,163.748,567.102,38.279,532.968,-76.629C503.56,-175.628,469.586,-270.554,407.343,-352.965C341.607,-440.001,262.675,-513.962,165.398,-563.295C52.946,-620.323,-68.122,-674.546,-193.042,-657.441C-326.119,-639.219,-450.132,-567.768,-538.796,-466.87C-627.769,-365.621,-673.171,-232.715,-684.31,-98.389C-695.048,31.092,-655.829,156.688,-600.246,274.123C-545.264,390.288,-473.746,499.508,-367.26,571.468C-259.326,644.406,-127.201,707.85,0,679.75" fill="rgba(217, 158, 121, 0.3215686274509804)"></path><path d="M2000 1085.3490000000002C2126.273 1071.875 2252.964 1074.716 2367.445 1019.756 2492.433 959.752 2601.591 872.803 2680.371 758.7149999999999 2769.902 629.057 2886.874 478.569 2846.273 326.324 2805.191 172.276 2590.976 146.86399999999998 2485.354 27.437999999999988 2381.391-90.11099999999999 2385.396-308.53700000000003 2237.755-361.71799999999996 2091.624-414.355 1940.577-292.69899999999996 1804.501-217.80999999999995 1691.68-155.71900000000005 1607.67-62.297000000000025 1520.8600000000001 32.82299999999998 1431.646 130.57799999999997 1331.539 220.257 1290.022 345.921 1243.719 486.072 1221.693 641.517 1274.183 779.47 1328.002 920.915 1438.987 1045.1770000000001 1578.4470000000001 1103.949 1710.741 1159.701 1857.248 1100.5819999999999 2000 1085.3490000000002" fill="rgba(225, 178, 149, 0.3215686274509804)"></path></g><defs><mask id="SvgjsMask1422"><rect width="2000" height="448" fill="#ffffff"></rect></mask></defs></svg>