<svg xmlns="http://www.w3.org/2000/svg" viewBox="0 0 150 50" width="150" height="50">
	<style>
		tspan { white-space:pre }
	</style>
	<path id="My Glam " fill="#b03240" d="M22.86 30.14L22.3 30.14L13.06 6.15L13.06 27.94L16.04 29.18L16.04 29.83L9.41 29.83L9.41 29.18L12.32 27.94L12.32 6.15L9.47 5.72L9.47 5.03L16.32 5.03L24.1 24.94L32.04 5.03L38.3 5.03L38.3 5.72L35.45 6.15L35.45 28.72L38.3 29.18L38.3 29.83L29.18 29.83L29.18 29.18L32.04 28.72L32.04 7.08L22.86 30.14ZM43.2 38.89Q41.58 38.89 40.59 38.08Q39.6 37.27 39.6 35.91Q39.6 34.98 40.13 34.42Q40.69 33.83 41.49 33.83Q42.08 33.83 42.55 34.08Q43.01 34.33 43.29 34.82Q42.82 35.48 42.82 36.19Q42.82 36.81 43.23 37.21Q43.63 37.61 44.25 37.61Q44.99 37.61 45.52 37.12Q46.08 36.62 46.51 35.38L48.37 30.05L41.18 14.74L39.1 14.43L39.1 13.81L46.82 13.81L46.82 14.43L44.65 14.8L49.83 25.87L53.52 15.2L50.85 14.43L50.85 13.81L56.43 13.81L56.43 14.43L54.33 15.2L47.38 35.38Q46.73 37.21 45.8 38.05Q44.9 38.89 43.2 38.89ZM76.43 30.45Q73.05 30.45 70.51 28.81Q67.97 27.17 66.57 24.22Q65.21 21.28 65.21 17.43Q65.21 13.59 66.66 10.64Q68.12 7.7 70.72 6.06Q73.36 4.41 76.74 4.41Q79.93 4.41 82.13 6.03L84.02 4.41L84.67 4.41L84.67 12.1L84.02 12.1L81.98 6.99Q79.75 5.13 76.74 5.13Q74.57 5.13 72.83 6.24Q71.13 7.36 70.14 9.5Q69.17 11.64 69.17 14.58L69.17 20.25Q69.17 23.2 70.07 25.34Q71 27.48 72.62 28.62Q74.26 29.74 76.43 29.74Q79.09 29.74 80.55 28.1Q82.04 26.45 82.04 23.7L82.04 20.81L79.16 20.38L79.16 19.7L88.43 19.7L88.43 20.38L85.54 20.81L85.54 23.7Q85.54 25.46 84.58 27.01Q83.62 28.53 81.57 29.49Q79.53 30.45 76.43 30.45ZM96.95 29.83L89.36 29.83L89.36 29.21L91.68 28.9L91.68 5.96L89.36 5.65L89.36 5.03L94.78 5.03L94.78 28.9L96.95 29.21L96.95 29.83ZM103.55 30.14Q101.57 30.14 100.3 29.12Q99.03 28.07 99.03 26.02Q99.03 23.11 101.48 21.9Q103.93 20.66 107.15 20.66L109.23 20.66L109.23 18.27Q109.23 16.66 108.85 15.79Q108.51 14.89 107.77 14.55Q107.03 14.18 105.75 14.18Q104.3 14.18 103.58 14.77Q102.87 15.33 102.87 16.29Q102.87 17.19 103.74 17.46Q103.74 18.24 103.15 18.83Q102.56 19.42 101.76 19.42Q100.89 19.42 100.36 18.95Q99.83 18.46 99.83 17.46Q99.83 15.67 101.63 14.58Q103.43 13.5 106.13 13.5Q112.33 13.5 112.33 18.89L112.33 27.76Q112.33 28.44 112.61 28.81Q112.92 29.15 113.47 29.15Q114 29.15 114.31 28.81Q114.62 28.44 114.62 27.82L115.27 27.82Q115.27 28.9 114.56 29.52Q113.88 30.14 112.64 30.14Q111.21 30.14 110.22 29.34Q109.26 28.5 109.23 26.76Q108.48 28.35 106.93 29.24Q105.41 30.14 103.55 30.14ZM105.26 28.78Q106.1 28.78 106.96 28.28Q107.86 27.79 108.48 26.86Q109.1 25.9 109.23 24.56L109.23 21.34L107.15 21.34Q104.61 21.34 103.34 22.49Q102.1 23.6 102.1 25.65Q102.1 27.35 102.9 28.07Q103.71 28.78 105.26 28.78ZM116.02 29.83L116.02 29.21L118.19 28.9L118.19 14.71L116.02 14.4L116.02 13.78L121.29 13.78L121.29 16.63Q122.4 15.17 123.8 14.33Q125.22 13.5 126.87 13.5Q128.76 13.5 129.93 14.33Q131.14 15.14 131.45 16.78Q132.57 15.26 134 14.4Q135.42 13.5 137.13 13.5Q139.33 13.5 140.54 14.61Q141.78 15.7 141.78 17.93L141.78 28.9L143.95 29.21L143.95 29.83L136.82 29.83L136.82 29.21L138.68 28.9L138.68 17.99Q138.68 16.35 138.09 15.48Q137.5 14.61 136.17 14.61Q134.89 14.61 133.69 15.48Q132.51 16.35 131.55 17.71L131.55 28.9L133.41 29.21L133.41 29.83L126.56 29.83L126.56 29.21L128.42 28.9L128.42 17.99Q128.42 16.35 127.83 15.48Q127.24 14.61 125.9 14.61Q124.63 14.61 123.42 15.48Q122.25 16.35 121.29 17.71L121.29 28.9L123.15 29.21L123.15 29.83L116.02 29.83Z" />
	<path id="M A K E O V E R " fill="#000000" d="M17.89 47.17L17.59 47.17L12.52 34.01L12.52 45.96L14.15 46.64L14.15 47L10.51 47L10.51 46.64L12.11 45.96L12.11 34.01L10.55 33.77L10.55 33.4L14.3 33.4L18.57 44.31L22.92 33.4L26.36 33.4L26.36 33.77L24.79 34.01L24.79 46.39L26.36 46.64L26.36 47L21.36 47L21.36 46.64L22.92 46.39L22.92 34.52L17.89 47.17ZM34.26 47L30.62 47L30.62 46.64L32.29 45.96L37.2 33.06L37.48 33.06L42.12 46.39L43.68 46.64L43.68 47L38.68 47L38.68 46.64L40.08 46.42L38.63 42.39L34.11 42.39L32.73 45.96L34.26 46.64L34.26 47ZM36.47 36.05L34.25 42.04L38.51 42.04L36.47 36.05ZM53.06 47L48.07 47L48.07 46.64L49.63 46.39L49.63 34.01L48.07 33.77L48.07 33.4L53.06 33.4L53.06 33.77L51.5 34.01L51.5 40.13L57.03 34.49L55.17 33.77L55.17 33.4L59.1 33.4L59.1 33.77L57.71 34.49L53.85 38.36L59.29 46.39L60.44 46.64L60.44 47L55.43 47L55.43 46.64L56.97 46.41L52.52 39.69L51.5 40.73L51.5 46.39L53.06 46.64L53.06 47ZM75.28 47L64.68 47L64.68 46.64L66.24 46.39L66.24 34.01L64.68 33.77L64.68 33.4L74.91 33.4L74.91 37.29L74.45 37.29L73.14 33.83L68.11 33.83L68.11 39.95L70.32 39.95L71.32 37.48L71.76 37.48L71.76 42.85L71.32 42.85L70.3 40.35L68.11 40.35L68.11 46.59L73.45 46.59L74.84 42.85L75.28 42.85L75.28 47ZM87.64 47.34Q85.79 47.34 84.33 46.44Q82.87 45.54 82.05 43.92Q81.23 42.29 81.23 40.2Q81.23 38.11 82.05 36.49Q82.87 34.86 84.33 33.96Q85.79 33.06 87.64 33.06Q89.5 33.06 90.96 33.96Q92.42 34.86 93.24 36.49Q94.05 38.11 94.05 40.2Q94.05 42.29 93.24 43.92Q92.42 45.54 90.96 46.44Q89.5 47.34 87.64 47.34ZM87.64 46.95Q88.87 46.95 89.84 46.3Q90.82 45.66 91.38 44.43Q91.94 43.19 91.94 41.51L91.94 38.89Q91.94 37.21 91.38 35.98Q90.82 34.74 89.84 34.1Q88.87 33.45 87.64 33.45Q86.4 33.45 85.43 34.1Q84.46 34.74 83.9 35.98Q83.34 37.21 83.34 38.89L83.34 41.51Q83.34 43.19 83.9 44.43Q84.46 45.66 85.43 46.3Q86.4 46.95 87.64 46.95ZM104.93 47.34L104.8 47.34L99.9 34.01L98.54 33.77L98.54 33.4L103.52 33.4L103.52 33.77L101.92 33.98L105.66 44.16L109.33 34.54L107.38 33.77L107.38 33.4L111.03 33.4L111.03 33.77L109.79 34.52L104.93 47.34ZM125.96 47L115.35 47L115.35 46.64L116.92 46.39L116.92 34.01L115.35 33.77L115.35 33.4L125.59 33.4L125.59 37.29L125.13 37.29L123.82 33.83L118.79 33.83L118.79 39.95L121 39.95L122 37.48L122.44 37.48L122.44 42.85L122 42.85L120.98 40.35L118.79 40.35L118.79 46.59L124.12 46.59L125.52 42.85L125.96 42.85L125.96 47ZM141.55 47.17Q140.6 47.17 140.12 46.71Q139.65 46.25 139.48 45.15L139.15 42.87Q138.98 41.71 138.35 41.07Q137.74 40.4 136.43 40.4L135.11 40.4L135.11 46.39L136.67 46.64L136.67 47L131.67 47L131.67 46.64L133.24 46.39L133.24 34.01L131.67 33.77L131.67 33.4L136.43 33.4Q139.2 33.4 140.44 34.27Q141.69 35.13 141.69 36.9Q141.69 39.83 138.15 40.28L138.15 40.39Q139.46 40.57 140.24 41.32Q141.04 42.07 141.24 43.31L141.46 44.77Q141.6 45.73 141.77 46.06Q141.96 46.41 142.33 46.41Q142.59 46.41 142.88 46.25Q143.16 46.08 143.42 45.83L143.71 46.13Q143.22 46.69 142.69 46.93Q142.16 47.17 141.55 47.17ZM135.11 40L137.01 40Q138.25 40 138.93 39.25Q139.63 38.48 139.63 37L139.63 36.65Q139.63 33.83 136.43 33.83L135.11 33.83L135.11 40Z" />
</svg>